<?xml version="1.0" standalone="no"?>
<!DOCTYPE svg PUBLIC "-//W3C//DTD SVG 20010904//EN"
 "http://www.w3.org/TR/2001/REC-SVG-20010904/DTD/svg10.dtd">
<svg version="1.0" xmlns="http://www.w3.org/2000/svg"
 width="260.000000pt" height="260.000000pt" viewBox="0 0 260.000000 260.000000"
 preserveAspectRatio="xMidYMid meet">
<metadata>
Created by potrace 1.11, written by Peter Selinger 2001-2013
</metadata>
<g transform="translate(0.000000,260.000000) scale(0.100000,-0.100000)"
fill="#000000" stroke="none">
<path d="M1150 2593 c-321 -49 -549 -162 -765 -378 -265 -264 -389 -572 -380
-945 2 -80 6 -158 10 -175 21 -101 28 -128 51 -200 61 -191 163 -356 318 -510
197 -196 395 -303 671 -362 113 -24 379 -24 494 1 547 117 947 533 1035 1077
14 83 15 331 2 394 -4 17 -11 53 -16 80 -29 143 -104 317 -195 456 -64 96
-250 282 -344 343 -144 94 -314 167 -456 196 -27 5 -63 12 -80 16 -35 7 -308
13 -345 7z m972 -683 l88 -90 -580 -580 c-319 -319 -584 -580 -590 -580 -5 0
-153 144 -329 319 l-320 319 84 86 c46 47 88 87 94 88 6 2 114 -100 241 -226
l230 -229 492 491 c270 271 494 492 496 492 3 0 45 -40 94 -90z"/>
</g>
</svg>
