
<svg xmlns="http://www.w3.org/2000/svg">
  <symbol id="all" viewBox="0 0 28 24">
    <path d="M3.00168919,8.81925676 C1.79033784,8.81925676 0.8125,9.79709459 0.8125,11.0084459 C0.8125,12.2197973 1.79033784,13.1976351 3.00168919,13.1976351 C4.21304054,13.1976351 5.19087838,12.2197973 5.19087838,11.0084459 C5.19087838,9.79709459 4.21304054,8.81925676 3.00168919,8.81925676 L3.00168919,8.81925676 Z M3.00168919,0.0625 C1.79033784,0.0625 0.8125,1.04033784 0.8125,2.25168919 C0.8125,3.46304054 1.79033784,4.44087838 3.00168919,4.44087838 C4.21304054,4.44087838 5.19087838,3.46304054 5.19087838,2.25168919 C5.19087838,1.04033784 4.21304054,0.0625 3.00168919,0.0625 L3.00168919,0.0625 Z M3.00168919,17.8241216 C1.92168919,17.8241216 1.06060811,18.6997973 1.06060811,19.7652027 C1.06060811,20.8306081 1.93628378,21.7062838 3.00168919,21.7062838 C4.06709459,21.7062838 4.94277027,20.8306081 4.94277027,19.7652027 C4.94277027,18.6997973 4.08168919,17.8241216 3.00168919,17.8241216 L3.00168919,17.8241216 Z M7.38006757,21.2246622 L27.8125,21.2246622 L27.8125,18.3057432 L7.38006757,18.3057432 L7.38006757,21.2246622 L7.38006757,21.2246622 Z M7.38006757,12.4679054 L27.8125,12.4679054 L27.8125,9.54898649 L7.38006757,9.54898649 L7.38006757,12.4679054 L7.38006757,12.4679054 Z M7.38006757,0.79222973 L7.38006757,3.71114865 L27.8125,3.71114865 L27.8125,0.79222973 L7.38006757,0.79222973 L7.38006757,0.79222973 Z" id="path-1"></path>
  </symbol>
</svg>