<svg xmlns="http://www.w3.org/2000/svg">
  <symbol id="lessThreeDays" viewBox="0 2 28 24">
    <path d="M13.5,0.482142857 C6.31125,0.482142857 0.482142857,6.31125 0.482142857,13.5 C0.482142857,20.68875 6.31125,26.5178571 13.5,26.5178571 C14.7005357,26.5178571 15.6696429,25.54875 15.6696429,24.3482143 C15.6696429,23.7841071 15.4526786,23.2778571 15.1055357,22.8873214 C14.7728571,22.51125 14.5558929,22.005 14.5558929,21.4553571 C14.5558929,20.2548214 15.525,19.2857143 16.7255357,19.2857143 L19.2857143,19.2857143 C23.2778571,19.2857143 26.5178571,16.0457143 26.5178571,12.0535714 C26.5178571,5.66035714 20.68875,0.482142857 13.5,0.482142857 L13.5,0.482142857 Z M5.54464286,13.5 C4.34410714,13.5 3.375,12.5308929 3.375,11.3303571 C3.375,10.1298214 4.34410714,9.16071429 5.54464286,9.16071429 C6.74517857,9.16071429 7.71428571,10.1298214 7.71428571,11.3303571 C7.71428571,12.5308929 6.74517857,13.5 5.54464286,13.5 L5.54464286,13.5 Z M9.88392857,7.71428571 C8.68339286,7.71428571 7.71428571,6.74517857 7.71428571,5.54464286 C7.71428571,4.34410714 8.68339286,3.375 9.88392857,3.375 C11.0844643,3.375 12.0535714,4.34410714 12.0535714,5.54464286 C12.0535714,6.74517857 11.0844643,7.71428571 9.88392857,7.71428571 L9.88392857,7.71428571 Z M17.1160714,7.71428571 C15.9155357,7.71428571 14.9464286,6.74517857 14.9464286,5.54464286 C14.9464286,4.34410714 15.9155357,3.375 17.1160714,3.375 C18.3166071,3.375 19.2857143,4.34410714 19.2857143,5.54464286 C19.2857143,6.74517857 18.3166071,7.71428571 17.1160714,7.71428571 L17.1160714,7.71428571 Z M21.4553571,13.5 C20.2548214,13.5 19.2857143,12.5308929 19.2857143,11.3303571 C19.2857143,10.1298214 20.2548214,9.16071429 21.4553571,9.16071429 C22.6558929,9.16071429 23.625,10.1298214 23.625,11.3303571 C23.625,12.5308929 22.6558929,13.5 21.4553571,13.5 L21.4553571,13.5 Z" id="path-1"></path>
  </symbol>
</svg>