<svg xmlns="http://www.w3.org/2000/svg">
  <symbol id="signOut" viewBox="-1 -0.5 22 20">
    <path d="M8.35125,14.53875 L9.9375,16.125 L15.5625,10.5 L9.9375,4.875 L8.35125,6.46125 L11.25375,9.375 L0.375,9.375 L0.375,11.625 L11.25375,11.625 L8.35125,14.53875 L8.35125,14.53875 Z M18.375,0.375 L2.625,0.375 C1.37625,0.375 0.375,1.3875 0.375,2.625 L0.375,7.125 L2.625,7.125 L2.625,2.625 L18.375,2.625 L18.375,18.375 L2.625,18.375 L2.625,13.875 L0.375,13.875 L0.375,18.375 C0.375,19.6125 1.37625,20.625 2.625,20.625 L18.375,20.625 C19.6125,20.625 20.625,19.6125 20.625,18.375 L20.625,2.625 C20.625,1.3875 19.6125,0.375 18.375,0.375 L18.375,0.375 Z" id="path-1"></path>
  </symbol>
</svg>